/* XPM */
static char * mc1_xpm[] = {
"53 54 154 2",
"  	c #FFFFFF",
". 	c #000000",
"+ 	c #0001FD",
"@ 	c #0000A2",
"# 	c #000CFD",
"$ 	c #007AFD",
"% 	c #007CFD",
"& 	c #000038",
"* 	c #FCFCFC",
"= 	c #000513",
"- 	c #00118C",
"; 	c #003BFD",
"> 	c #000757",
", 	c #000013",
"' 	c #0039FD",
") 	c #002775",
"! 	c #ECECEC",
"~ 	c #0081FD",
"{ 	c #F4F4F4",
"] 	c #000058",
"^ 	c #0000EF",
"/ 	c #0002C3",
"( 	c #0031FD",
"_ 	c #AAA7A7",
": 	c #0099FD",
"< 	c #0078FD",
"[ 	c #CBCBCB",
"} 	c #0000F6",
"| 	c #0016FD",
"1 	c #E0DFDF",
"2 	c #000035",
"3 	c #B4B0B0",
"4 	c #0032B5",
"5 	c #C1BCB8",
"6 	c #0000B5",
"7 	c #0036B5",
"8 	c #6F6D6D",
"9 	c #0040FD",
"0 	c #BABABA",
"a 	c #00008C",
"b 	c #858585",
"c 	c #DADADA",
"d 	c #00007D",
"e 	c #004FFD",
"f 	c #001E75",
"g 	c #0000CE",
"h 	c #008FFD",
"i 	c #0041C4",
"j 	c #000068",
"k 	c #C1B5B5",
"l 	c #555454",
"m 	c #000175",
"n 	c #121283",
"o 	c #706D9D",
"p 	c #020299",
"q 	c #141565",
"r 	c #001C3B",
"s 	c #002F5F",
"t 	c #00489A",
"u 	c #005ECF",
"v 	c #0128D9",
"w 	c #0113E0",
"x 	c #002045",
"y 	c #003C76",
"z 	c #003D90",
"A 	c #0046E4",
"B 	c #0147D3",
"C 	c #3540A4",
"D 	c #959192",
"E 	c #555395",
"F 	c #666666",
"G 	c #0059FD",
"H 	c #A09DAC",
"I 	c #9693AF",
"J 	c #5265A6",
"K 	c #0026CA",
"L 	c #041DF6",
"M 	c #0061E9",
"N 	c #0170E0",
"O 	c #015BC2",
"P 	c #0045BE",
"Q 	c #8C99BF",
"R 	c #364454",
"S 	c #49A2DF",
"T 	c #007DCF",
"U 	c #51528F",
"V 	c #00A6FC",
"W 	c #647D8B",
"X 	c #1029BE",
"Y 	c #F7FCF0",
"Z 	c #676874",
"` 	c #213CD0",
" .	c #3A3C84",
"..	c #4454B0",
"+.	c #4856D6",
"@.	c #4353DF",
"#.	c #323455",
"$.	c #8B8C98",
"%.	c #4F6DE1",
"&.	c #5B5B8A",
"*.	c #006BC6",
"=.	c #494651",
"-.	c #B9B9DD",
";.	c #292A91",
">.	c #0C0A2B",
",.	c #232130",
"'.	c #3F4D79",
").	c #4D5BC6",
"!.	c #7E7AAC",
"~.	c #B8BAC8",
"{.	c #478EBF",
"].	c #858599",
"^.	c #7997AD",
"/.	c #3788AC",
"(.	c #0C6DAD",
"_.	c #0155A1",
":.	c #5F5F74",
"<.	c #5D76AB",
"[.	c #95AFAD",
"}.	c #73A9A9",
"|.	c #3E929D",
"1.	c #687D7C",
"2.	c #2938AA",
"3.	c #115B8A",
"4.	c #0065FD",
"5.	c #94A4AE",
"6.	c #106AAE",
"7.	c #0090DA",
"8.	c #92B8AF",
"9.	c #54686E",
"0.	c #012263",
"a.	c #00052C",
"b.	c #000F4F",
"c.	c #215276",
"d.	c #7D8FA4",
"e.	c #455171",
"f.	c #002D8C",
"g.	c #001DA2",
"h.	c #1E1E20",
"i.	c #35344A",
"j.	c #636254",
"k.	c #8D8A75",
"l.	c #4D4C3D",
"m.	c #ACA7BF",
"n.	c #315A6B",
"o.	c #A1A0C3",
"p.	c #D3D2FC",
"q.	c #3074DC",
"r.	c #0359D4",
"s.	c #8586B1",
"t.	c #C8C8FC",
"u.	c #7070C7",
"v.	c #BFD8F4",
"w.	c #8387D6",
"                                                                                                          ",
"                                                                                                          ",
"                                            *                                                             ",
"                                    *             * *                                                     ",
"                                *       ! 1 1 c [ [ [ [ [ c 1 {                                           ",
"                                  { c ~.~.~.~.0 0 0 0 0 ~.~.H m.o.-.*                                     ",
"                              1 -.0 0 0 5 5 5 5 3 _ _ 5 5 5 5 0 m.I H m.{ *                               ",
"                          * [ H ~.5 k 3 _ k.j.i.,.h.h.#.e.]._ 3 5 5 3 H !.-.{ *                           ",
"                        1 5 3 5 0 _ W #.. . . . . . . . . . h.l.b H 5 5 3 !.Q c * *                       ",
"                    * ~.H 3 5 H :.r . . . . . . . . . . . . . . . ,.Z H 5 5 [.^.~.{ *                     ",
"                  * ~.~.5 5 ].#.. . . . . . . . . . . . . . . . . . . #.].0 k 3 o o.! *                   ",
"                * ~.3 5 3 :., . . . . . . . . . . . . . . . . . . . . . , Z 3 5 3 o o.! *                 ",
"            *   [ 0 5 5.n.. . . . . . . . . . . . . . . . . . . . . . . . . F 3 5 3 ^.5.!                 ",
"              c 0 5 _ n.. . = = , = = , = = = , , , = , = = = = = = = = = = . 9.3 k _ W 0 {               ",
"            1 H k H '., >.2 2 2 2 2 2 & & & & & & 2 a.& & & 2 2 & & 2 & & 2 a., :.3 3 I o [ *             ",
"            ~.k 0 &.a.2 b.> > > ] b.b.] ] > > ] ] > 0.] > > > > > > > > > ] b.& & ].5 5 o $.1 *           ",
"          ~.3 5 ^.r a.0.) ) ) f m f f m f ) f m m j ) j ) ) ) ) ) ) ) ) f m j f ] s [.k _ :.3 {           ",
"        * _ 5 H y 2 j - - - - - a n ;.a a - - a a - f.a - - - - - - - - - a - f.d ] e.3 3 b b c *         ",
"    *   c 3 5 o > j p @ @ @ @ @ @ g.2.@ @ @ @ @ @ p 2.@ @ @ @ @ @ @ @ @ @ @ g.2.@ a j ].5 _ 8 3 {         ",
"      * 0 5 3 c.b.;.7 4 4 4 7 X 6 X 7 6 X 7 X 6 6 @ P 6 4 4 4 4 4 4 7 7 X 6 X 7 6 X ;.e.3 0 b b c         ",
"      1 3 k d.s f 7 i i i i X X / X i / K P X / / 6 P 6 i i i i i i 4 4 ` / K i / K 2.) $.5 _ 8 0 *       ",
"  *   c 5 3  .] @ / g g g / u.4 @ X B g g g g g g / r./ g g g g g / ` ).@ 6 K B g g / p &.5 3 F _ !       ",
"      0 5 H f j K g g v w ` ! 1 q n B w w v w w w w T a K ` +.).w.-.! 1 b.a K B w w v 6 f.3 3 b b 1       ",
"    { 3 5 s.q t u u u u r.*.1   [ s 2.w A N A w w w v.&.* ! ! { *     ! R > X B w v N i - _ 5 D 8 [ *     ",
"    ! 3 5 E ] g.v v ' ; ' ` v.    0 0.6 w v w ^ ^ +.  ].  :.i.e.:.:.Z Z ,.> 4 M ^ L v w p ].5 _ F 0 *     ",
"*   1 3 5 ..j / ^ ^ ^ ^ ^ v p.1     $.] / ^ ^ ^ v {   H c , a.] j ] > > ] a ` M ^ ^ ^ ^ 6 o 5 _ F _ {     ",
"    1 0 5 ;.j r.M 4.4.M 4.q.! =._   * :.f r.9 w p.m.c [ D , 0.u r.r.r.u P w 9 M } ' < e 6 U 5 _ l D !     ",
"    1 0 5 ;.d w } } # # } @.1 x ] f W ! ! &.v.o b.0.{ [ :.>.@ ^ } ^ ^ ^ } + e $ # # } } /  .5 _ l D !     ",
"*   1 0 5 C m K ' ' ' ' ( %.{ #.j i z  .!   :.2 j ..  3 _ #.C @.@.+.+.+.X g e ~ # | ; ( / U 5 _ l D !     ",
"    1 3 5 E f T : : : : h S   R j B N @ Q [ , > @ `   Z   ! ! Y Y       W m B ~ # e V < 6 o 5 _ l _ !     ",
"    ! _ 3 !.j X 9 9 9 9 ' %.* Z ] B < ^ ).'.& a w v {.2 ~.        * [ 3 =.& P % # L 9 ( 6 ].5 D F _ {     ",
"    { 3 3 m.d @ ^ + + + + g -.$.] P < # w p a g } ( *.d n &.$.Z =.,.>.>.2 j i ~ # + # ^ @ _ 3 D F 0 *     ",
"      5 0 3 ;.a ^ } + + + ^ p q m i < # } w w ^ + ( h v u t s r r x s y z 6 A ~ # 9 ~ B C 3 _ 8 8 [ *     ",
"  *   c 0 5 o d g } + + + } g 6 6 B < # + } } + + ( h ( % N O O O O u N M ^ e ~ # 9 h P o 5 _ F b 1       ",
"      ! _ 5 H n @ ^ + + + + } ^ ^ G < + + + + + + ( h + # # # | ^ | # # # + e ~ # # w @ H 5 D F _ {       ",
"        3 0 0 E a g } + + + + + + G < + + + + + + ( h | ' ' ' ' ' ' ' ' ( + e ~ # L K J k 3 8 8 0 *       ",
"    *   c _ 5 I n @ ^ + + + + + + G < # + + + + + ( h 9 : : : : : : : : ~ | e ~ # A /.[.k D F b 1         ",
"        * _ 3 5 E a g } + + + + + G < + + + + + + ( h | ; ; ; ; ; ; ' ; ( + e ~ ^ 6 <.5 _ 8 F 3 {         ",
"          c _ 5 3 z a w | | # # # 4.~ | # # # # # 9 : # # # # # # # # # # # G h / 2.H k D :.b c *         ",
"          * 0 _ 5 5.3.t N $ $ $ $ : V ~ $ $ $ $ < h V < $ $ $ $ $ $ $ $ $ < : 7.6.5.5 D 1.F 0 {           ",
"            ! _ _ 5 }.3.t N % % % < < $ % $ % % % < < % % % % % % % % % % % u *.}.5 _ $.9.D 1 *           ",
"              c _ 3 k s.- @ w | # # # # # # # # # # # # # # # # # # # # | w 6 !.k 3 $.Z b [ *             ",
"                [ _ 3 5 Q f.p g ( | # ( ' ; ( + + + + | ' ' ' ' ' ' ; w g g.Q 5 3 D Z 8 [ {               ",
"                  0 _ 3 k 8.6.p u v | ~ : : < # + + + 9 : : : : : : T i 2.5.5 3 D Z 8 0 {                 ",
"                    0 H _ k 3 J ;.@ / v 9 ; ( + + + + | ' ' ; 9 v K 2.<.3 5 _ $.:.Z 0 !                   ",
"                    * [ $._ 3 5 I J 7 @ 6 g w L ^ ^ ^ ^ ^ w g 6 X E I 5 3 D ].:.b 0 ! *                   ",
"                        c _ D _ 5 5 H ^./.(._.t O O O O t (./.^.H 5 5 _ D 1.Z D [ {                       ",
"                          { [ D D 3 3 5 5 0 [.}.}.|.|.}.[.3 5 5 3 _ D b 1.b 3 1 *                         ",
"                              1 3 D b _ 3 3 k k k k k k k 3 _ _ b 8 8 b _ c {                             ",
"                                  1 0 _ D b D D _ _ _ D D 8 8 8 b D 0 c { *                               ",
"                                      * 1 [ 3 _ D D D b D D _ [ c ! { *                                   ",
"                                              * { ! ! ! ! { { *                                           ",
"                                                                                                          ",
"                                                                                                          "};
